<mxfile host="app.diagrams.net" modified="2022-01-25T07:47:05.845Z" agent="5.0 (Macintosh; Intel Mac OS X 10_15_7) AppleWebKit/537.36 (KHTML, like Gecko) Chrome/97.0.4692.71 Safari/537.36" etag="0H3c35c8n66bWIEE6VM9" version="16.2.4" type="github">
  <diagram id="pb3pBqsZEt64vC-tqtL2" name="Page-1">
    <mxGraphModel dx="1514" dy="733" grid="0" gridSize="10" guides="1" tooltips="1" connect="1" arrows="1" fold="1" page="1" pageScale="1" pageWidth="827" pageHeight="1169" math="0" shadow="0">
      <root>
        <mxCell id="0" />
        <mxCell id="1" parent="0" />
        <mxCell id="Fm35P72OHcBDf8J1mTAU-4" style="edgeStyle=orthogonalEdgeStyle;rounded=0;orthogonalLoop=1;jettySize=auto;html=1;exitX=0.5;exitY=1;exitDx=0;exitDy=0;entryX=0.5;entryY=0;entryDx=0;entryDy=0;" edge="1" parent="1" source="Fm35P72OHcBDf8J1mTAU-1" target="Fm35P72OHcBDf8J1mTAU-2">
          <mxGeometry relative="1" as="geometry" />
        </mxCell>
        <mxCell id="Fm35P72OHcBDf8J1mTAU-1" value="开始" style="ellipse;whiteSpace=wrap;html=1;" vertex="1" parent="1">
          <mxGeometry x="330" y="60" width="90" height="60" as="geometry" />
        </mxCell>
        <mxCell id="Fm35P72OHcBDf8J1mTAU-5" style="edgeStyle=orthogonalEdgeStyle;rounded=0;orthogonalLoop=1;jettySize=auto;html=1;entryX=0.5;entryY=0;entryDx=0;entryDy=0;" edge="1" parent="1" source="Fm35P72OHcBDf8J1mTAU-2" target="Fm35P72OHcBDf8J1mTAU-3">
          <mxGeometry relative="1" as="geometry" />
        </mxCell>
        <mxCell id="Fm35P72OHcBDf8J1mTAU-2" value="初始热度排序" style="rounded=0;whiteSpace=wrap;html=1;" vertex="1" parent="1">
          <mxGeometry x="325" y="160" width="100" height="50" as="geometry" />
        </mxCell>
        <mxCell id="Fm35P72OHcBDf8J1mTAU-9" style="edgeStyle=orthogonalEdgeStyle;rounded=0;orthogonalLoop=1;jettySize=auto;html=1;" edge="1" parent="1" source="Fm35P72OHcBDf8J1mTAU-3" target="Fm35P72OHcBDf8J1mTAU-6">
          <mxGeometry relative="1" as="geometry" />
        </mxCell>
        <mxCell id="Fm35P72OHcBDf8J1mTAU-3" value="调整后热度排序" style="rounded=0;whiteSpace=wrap;html=1;" vertex="1" parent="1">
          <mxGeometry x="325" y="250" width="100" height="50" as="geometry" />
        </mxCell>
        <mxCell id="Fm35P72OHcBDf8J1mTAU-18" value="" style="edgeStyle=orthogonalEdgeStyle;rounded=0;orthogonalLoop=1;jettySize=auto;html=1;" edge="1" parent="1" source="Fm35P72OHcBDf8J1mTAU-6" target="Fm35P72OHcBDf8J1mTAU-17">
          <mxGeometry relative="1" as="geometry" />
        </mxCell>
        <mxCell id="Fm35P72OHcBDf8J1mTAU-6" value="替换末位热词" style="rounded=0;whiteSpace=wrap;html=1;" vertex="1" parent="1">
          <mxGeometry x="325" y="350" width="100" height="50" as="geometry" />
        </mxCell>
        <mxCell id="Fm35P72OHcBDf8J1mTAU-11" style="edgeStyle=orthogonalEdgeStyle;rounded=0;orthogonalLoop=1;jettySize=auto;html=1;entryX=0.75;entryY=0;entryDx=0;entryDy=0;" edge="1" parent="1" source="Fm35P72OHcBDf8J1mTAU-10" target="Fm35P72OHcBDf8J1mTAU-6">
          <mxGeometry relative="1" as="geometry" />
        </mxCell>
        <mxCell id="Fm35P72OHcBDf8J1mTAU-10" value="挑选替换词" style="rounded=0;whiteSpace=wrap;html=1;" vertex="1" parent="1">
          <mxGeometry x="470" y="300" width="100" height="50" as="geometry" />
        </mxCell>
        <mxCell id="Fm35P72OHcBDf8J1mTAU-12" style="edgeStyle=orthogonalEdgeStyle;rounded=0;orthogonalLoop=1;jettySize=auto;html=1;exitX=1;exitY=0.5;exitDx=0;exitDy=0;entryX=0.75;entryY=0;entryDx=0;entryDy=0;" edge="1" parent="1" source="Fm35P72OHcBDf8J1mTAU-3" target="Fm35P72OHcBDf8J1mTAU-3">
          <mxGeometry relative="1" as="geometry">
            <Array as="points">
              <mxPoint x="490" y="265" />
              <mxPoint x="490" y="220" />
              <mxPoint x="400" y="220" />
            </Array>
          </mxGeometry>
        </mxCell>
        <mxCell id="Fm35P72OHcBDf8J1mTAU-13" value="小时级数据更新" style="edgeLabel;html=1;align=center;verticalAlign=middle;resizable=0;points=[];" vertex="1" connectable="0" parent="Fm35P72OHcBDf8J1mTAU-12">
          <mxGeometry x="-0.1545" y="-1" relative="1" as="geometry">
            <mxPoint as="offset" />
          </mxGeometry>
        </mxCell>
        <mxCell id="Fm35P72OHcBDf8J1mTAU-15" style="edgeStyle=orthogonalEdgeStyle;rounded=0;orthogonalLoop=1;jettySize=auto;html=1;entryX=1;entryY=0.5;entryDx=0;entryDy=0;" edge="1" parent="1" source="Fm35P72OHcBDf8J1mTAU-14" target="Fm35P72OHcBDf8J1mTAU-10">
          <mxGeometry relative="1" as="geometry" />
        </mxCell>
        <mxCell id="Fm35P72OHcBDf8J1mTAU-14" value="未上榜词" style="shape=cylinder3;whiteSpace=wrap;html=1;boundedLbl=1;backgroundOutline=1;size=15;" vertex="1" parent="1">
          <mxGeometry x="560" y="200" width="60" height="80" as="geometry" />
        </mxCell>
        <mxCell id="Fm35P72OHcBDf8J1mTAU-20" value="" style="edgeStyle=orthogonalEdgeStyle;rounded=0;orthogonalLoop=1;jettySize=auto;html=1;" edge="1" parent="1" source="Fm35P72OHcBDf8J1mTAU-17" target="Fm35P72OHcBDf8J1mTAU-19">
          <mxGeometry relative="1" as="geometry" />
        </mxCell>
        <mxCell id="Fm35P72OHcBDf8J1mTAU-17" value="运营策略调整" style="rounded=0;whiteSpace=wrap;html=1;" vertex="1" parent="1">
          <mxGeometry x="325" y="440" width="100" height="50" as="geometry" />
        </mxCell>
        <mxCell id="Fm35P72OHcBDf8J1mTAU-27" style="edgeStyle=orthogonalEdgeStyle;rounded=0;orthogonalLoop=1;jettySize=auto;html=1;entryX=0.5;entryY=0;entryDx=0;entryDy=0;" edge="1" parent="1" source="Fm35P72OHcBDf8J1mTAU-19" target="Fm35P72OHcBDf8J1mTAU-26">
          <mxGeometry relative="1" as="geometry" />
        </mxCell>
        <mxCell id="Fm35P72OHcBDf8J1mTAU-19" value="&amp;nbsp;热词最终曝光" style="rounded=0;whiteSpace=wrap;html=1;" vertex="1" parent="1">
          <mxGeometry x="325" y="530" width="100" height="50" as="geometry" />
        </mxCell>
        <mxCell id="Fm35P72OHcBDf8J1mTAU-23" value="结束" style="ellipse;whiteSpace=wrap;html=1;" vertex="1" parent="1">
          <mxGeometry x="330" y="700" width="90" height="60" as="geometry" />
        </mxCell>
        <mxCell id="Fm35P72OHcBDf8J1mTAU-28" style="edgeStyle=orthogonalEdgeStyle;rounded=0;orthogonalLoop=1;jettySize=auto;html=1;entryX=0;entryY=0.5;entryDx=0;entryDy=0;" edge="1" parent="1" source="Fm35P72OHcBDf8J1mTAU-26" target="Fm35P72OHcBDf8J1mTAU-3">
          <mxGeometry relative="1" as="geometry">
            <Array as="points">
              <mxPoint x="280" y="640" />
              <mxPoint x="280" y="275" />
            </Array>
          </mxGeometry>
        </mxCell>
        <mxCell id="Fm35P72OHcBDf8J1mTAU-30" value="否" style="edgeLabel;html=1;align=center;verticalAlign=middle;resizable=0;points=[];" vertex="1" connectable="0" parent="Fm35P72OHcBDf8J1mTAU-28">
          <mxGeometry x="-0.9164" y="-1" relative="1" as="geometry">
            <mxPoint as="offset" />
          </mxGeometry>
        </mxCell>
        <mxCell id="Fm35P72OHcBDf8J1mTAU-29" style="edgeStyle=orthogonalEdgeStyle;rounded=0;orthogonalLoop=1;jettySize=auto;html=1;" edge="1" parent="1" source="Fm35P72OHcBDf8J1mTAU-26" target="Fm35P72OHcBDf8J1mTAU-23">
          <mxGeometry relative="1" as="geometry" />
        </mxCell>
        <mxCell id="Fm35P72OHcBDf8J1mTAU-31" value="是" style="edgeLabel;html=1;align=center;verticalAlign=middle;resizable=0;points=[];" vertex="1" connectable="0" parent="Fm35P72OHcBDf8J1mTAU-29">
          <mxGeometry x="0.28" y="-1" relative="1" as="geometry">
            <mxPoint as="offset" />
          </mxGeometry>
        </mxCell>
        <mxCell id="Fm35P72OHcBDf8J1mTAU-26" value="是否新周期开始？" style="rhombus;whiteSpace=wrap;html=1;" vertex="1" parent="1">
          <mxGeometry x="312.5" y="610" width="125" height="60" as="geometry" />
        </mxCell>
      </root>
    </mxGraphModel>
  </diagram>
</mxfile>
